/* XPM */
static char *ecefe48244ac44b7bac93eaef1c67210byXACAlKyH0ZzeV3[] = {
/* columns rows colors chars-per-pixel */
"64 64 241 2 ",
"   c None",
".  c #010101",
"X  c #090703",
"o  c #0A0805",
"O  c #0E0E0A",
"+  c #130B02",
"@  c #160E05",
"#  c #13120E",
"$  c #1A1204",
"%  c #171612",
"&  c #181713",
"*  c #1A1915",
"=  c #1E1D18",
"-  c #241B0A",
";  c #251E14",
":  c #272118",
">  c #352715",
",  c #38311F",
"<  c #322307",
"1  c #292622",
"2  c #333322",
"3  c #3D3D2B",
"4  c #3D3D22",
"5  c #3E3931",
"6  c #58330D",
"7  c #4C2B0B",
"8  c #623A0F",
"9  c #6A3D0F",
"0  c #433E39",
"q  c #403F23",
"w  c #4B451D",
"e  c #5A4D14",
"r  c #664B0D",
"t  c #7C4913",
"y  c #7B4E1C",
"u  c #754917",
"i  c #6C4E11",
"p  c #434223",
"a  c #41412E",
"s  c #4D4824",
"d  c #524A28",
"f  c #454532",
"g  c #4A4936",
"h  c #514532",
"j  c #584D37",
"k  c #53523A",
"l  c #5B5839",
"z  c #5B5A2D",
"x  c #68572A",
"c  c #63563E",
"v  c #65583F",
"b  c #76583A",
"n  c #76522E",
"m  c #6C663C",
"M  c #726C3C",
"N  c #777234",
"B  c #5D5D43",
"V  c #6A5C42",
"C  c #655B40",
"Z  c #765442",
"A  c #7B5B48",
"S  c #656442",
"D  c #6A6443",
"F  c #6B6947",
"G  c #6D6B4A",
"H  c #6A654C",
"J  c #736C4C",
"K  c #7C6E4D",
"L  c #76644C",
"P  c #78744D",
"I  c #6F6E56",
"U  c #6C6554",
"Y  c #7F6F50",
"T  c #737353",
"R  c #7D7353",
"E  c #79765A",
"W  c #7F7F65",
"Q  c #875718",
"!  c #88540F",
"~  c #8A6415",
"^  c #896714",
"/  c #956C19",
"(  c #99711C",
")  c #A06D1E",
"_  c #A3721F",
"`  c #835825",
"'  c #886326",
"]  c #976725",
"[  c #8D702E",
"{  c #A57626",
"}  c #AF7C2F",
"|  c #846444",
" . c #896744",
".. c #88694A",
"X. c #88734D",
"o. c #846753",
"O. c #857553",
"+. c #897654",
"@. c #857957",
"#. c #8A7956",
"$. c #8B7D5B",
"%. c #89775B",
"&. c #947452",
"*. c #997755",
"=. c #9B7956",
"-. c #9B7C5A",
";. c #947A59",
":. c #9F7742",
">. c #A77B43",
",. c #A67A57",
"<. c #907E63",
"1. c #9B811D",
"2. c #BA970E",
"3. c #A78A19",
"4. c #B49313",
"5. c #BA9B19",
"6. c #AF9013",
"7. c #BFA01B",
"8. c #BC9D23",
"9. c #B78737",
"0. c #AC952F",
"q. c #BCA132",
"w. c #C09A0B",
"e. c #C09F13",
"r. c #C5A30B",
"t. c #D7B505",
"y. c #C8A615",
"u. c #D5AB17",
"i. c #D4B311",
"p. c #E2B604",
"a. c #E2B316",
"s. c #CAB02B",
"d. c #E5BB24",
"f. c #C1933E",
"g. c #E9C905",
"h. c #F1CB06",
"j. c #F9D504",
"k. c #E5C615",
"l. c #F8D117",
"z. c #E3C331",
"x. c #F0D132",
"c. c #F4CE23",
"v. c #DDC00B",
"b. c #8D815E",
"n. c #878759",
"m. c #93825E",
"M. c #9C815C",
"N. c #BC8D4A",
"B. c #A68456",
"V. c #A98755",
"C. c #AA8956",
"Z. c #AC895A",
"A. c #A1815B",
"S. c #AF8340",
"D. c #8D8C6C",
"F. c #868367",
"G. c #938362",
"H. c #938D6A",
"J. c #988868",
"K. c #95906E",
"L. c #9D936A",
"P. c #8D8D72",
"I. c #998B75",
"U. c #9C8C78",
"Y. c #988674",
"T. c #969472",
"R. c #999674",
"E. c #999977",
"W. c #9B9B79",
"Q. c #989479",
"!. c #A68462",
"~. c #AA8663",
"^. c #AC8965",
"/. c #A18D6D",
"(. c #AD8D6C",
"). c #B78865",
"_. c #BA8866",
"`. c #BA8C6B",
"'. c #AB936A",
"]. c #BB9566",
"[. c #A29D7B",
"{. c #AB9C7B",
"}. c #A99774",
"|. c #B19D7C",
" X c #B59776",
".X c #AE8F70",
"XX c #A3A17F",
"oX c #ADA17E",
"OX c #B4A17E",
"+X c #BDAA7B",
"@X c #C99A48",
"#X c #C59452",
"$X c #CDAA67",
"%X c #DEC144",
"&X c #DEDF7C",
"*X c #EAE269",
"=X c #F6EB66",
"-X c #FBF374",
";X c #F5EF74",
":X c #E9CD44",
">X c #AC9B86",
",X c #A69482",
"<X c #B29E88",
"1X c #A5A585",
"2X c #ABA483",
"3X c #ADA986",
"4X c #A7A789",
"5X c #ABAB8B",
"6X c #AFA088",
"7X c #B4A684",
"8X c #B9A683",
"9X c #B6A886",
"0X c #BAA986",
"qX c #B4A28C",
"wX c #B2AC8B",
"eX c #BBAA89",
"rX c #B8A58E",
"tX c #B1B08E",
"yX c #BAB38F",
"uX c #BDB98A",
"iX c #B9A694",
"pX c #BAAA96",
"aX c #BCAD9C",
"sX c #B6A794",
"dX c #B5B492",
"fX c #BAB694",
"gX c #BBB896",
"hX c #BCBB9A",
"jX c #BCB399",
"kX c #AEA093",
"lX c #988C80",
"zX c #C0BC9E",
"xX c #C0AD82",
"cX c #C5B5A6",
"vX c #C6B9A4",
"bX c #C9BAA7",
"nX c #CCBBAA",
"mX c #C7B8A8",
"MX c #DDCCBB",
"NX c #D5C5B4",
"BX c #CEC0AD",
/* pixels */
"                                                                                                                                ",
"                                                    . . . . . . . . . . . . . . . .                                             ",
"                                                    # # % % % % % % % * & % % % * #                                             ",
"                        . . . . . . . . . . . . . % W P.4X4X4X4X4X4X4X4X4X4X4X4X4XF.. . . .                                     ",
"                        % & * & * * % * * * % * % 2 T.1X4X5X5X5X5X5X5X5X5X5X5X5X5XP.= % % %                                     ",
"                    . % W.4X4X4X4X4X4X5X4X4X4X4X4X5XdX1Xg a a a f a a a f a a a 3 B 1X4X4XF.o .                                 ",
"                    % 1 1X5X5X5X4X5X5X5X5X4X4X5X5X4X5XQ.3 2 2 , 2 2 2 2 2 2 2 2 1 k dXhXdXP.o .                                 ",
"                . * 1XlXf 3 a a a a a a a a a a 3 f f 3 4 p p p p p 4 4 2 2 2 2 1 B dXtXG.V . .                                 ",
"                . % Q.E.g 3 2 2 2 2 2 2 2 2 2 2 , 2 , 4 p p s p p p w p 2 2 f f f B dXtXG.J = *                                 ",
"                    O 1 1X1X3 2 2 2 2 2 2 2 2 2 q p 4 p h h h h h h p 4 2 k 4XtXtXtXhXhXfXdX5XF.X .                             ",
"                    . * 4X1Xg f f f f f 2 2 2 2 p s e z x x x x h h p 4 2 g 5XtXtXtXtXtX5X5X5XD.= &                             ",
"                    . % P.1X5XtXtX5XtXW.3 2 2 2 p e g.g.i.t.h.i.w p 2 2 2 3 G G G I G G T F k G 5XW o .                         ",
"                    . # E D.5XdXgXdXtXE.q , w w z N j.j.k.k.j.v.N z s w w s M m S S S S S S k F hXP.o .                         ",
"                        O = R G.W.T.T S 4 w w.u.;X*Xi.d.-X=Xa.k.;X*Xt.r.6.6.5.3.S S S S S S S T hXP.o .                         ",
"                        . # D J K.K.T F 3 d i.z.-X-Xd.z.-X=Xa.a.;X=Xt.t.2.7.7.0.T T T T T T T n.dXF.o .                         ",
"                            o ; R G.tX2XF P -X-Xj.l.-X;Xk.g.j.j.a.u.2.r.t.i.uXgXdXdXdXdXdXdXdXtX1XW o .                         ",
"                            . # C R tX5XE n.&X*Xh.l.;X*Xp.p.h.g.u.y.8.s.k.s.uXgXgXgXdXdXdXdXtX1XW U . .                         ",
"                                o ; H.XXdX4XP N 3.4.5.y.t.t.4.4.2.8.uXuXgXuXeXyXeX9X[.W.W.R.m.L O O                             ",
"                                . % F.W.dX5XE P 1.3.e.r.t.t.4.0.5.q.gXgXdXdX8X7X7XoXE.E.R.H.J j . .                             ",
"                                . % Y b.E.XXdX3XG [ p.p.r.r.k.d.+X0XeXwX[.W.W.R.$.G.R.R.$.V O o                                 ",
"                                . # J @.D.E.gX3XG N t.p.y.i.z.%XxXeX9X<XT.T.T.K.$.b.T.D.L j X .                                 ",
"                            . . . O C D F T 9XoXG N 5.y.l.x.+X0XeX8XW.T.@.@.@.b.T.K.$.V O X     . . . .                         ",
"                            . . + - m m m P +XXXG M 3.7.x.:X0XeX8XOXL.L.M.:.X.#.'.J.+.m - &     ; - @ +                         ",
"                            . + i ! _ { ! ' 8XoXG S F P +XxXeX7XW.L.{ 9.$X@X^ ( @X@X] ) } ' . > N.>.~ e . .                     ",
"                            * : ` ] _ ( ! ' 8X<XR T T @.8XeX7XoXH.m.{ } @X@X^ ( f.9./ ] } ' . < N.} ~ r @ +                     ",
"                        . & }.{.R.m.Q ! ! ] |.xX8X8X7X7XeX9X[.H.y Q { } / ( _ _ ^ ~ t 9 ! 9 . - ~ ~ t u 9 6 . .                 ",
"                        : 5 oXwX[.L.] ' Q [ }.oX9X9X7X9X8XoXH.#.y Q ] ] ~ Q ) ( ^ ~ u u 6 7 . $ i i 8 9 ! 6 . .                 ",
"                    . * aXBXhXgXeX8XR.K.@.X.G T R.W.W.W.W.H.y y ~ ` t y Q ` t ! Q n m h o X . . X X . - ~ r . .                 ",
"                    1 0 mXNXvXhXeX9X[.E.b.@.F J D.D.D.D.T.b.y y ` N y y ` n u y n N m k % O # O . . + < ^ r . .                 ",
"                . * aXnXzXzXbXbXeXeXeX7XW.K.O.O.G F F F G S S S m D O.X.D D S S S m D S B B m g . @ 9 t ^ r . .                 ",
"                1 0 nXMXzXzXmXvXeXeX9X7XW.R.m.$.T G D F F F F F F J $.@.F F F F F F F F F F S k % - 8 8 i e . .                 ",
"            . * aXnXnXnXnXmXhXhXeX9XW.W.E.W.8X7XI.D.+.O.@.O.O.O.O.$.R.K.+.O.+.+.O.+.+.+.+.P S S m f X X X X             . . . . ",
"            1 0 mXMXnXbXbXvXhXgXeX8XW.E.W.XX0X8XY.Y.$.$.$.b.b.$.$.b.E.T.b.$.@.@.@.#.$.$.b.@.F F G l % O . .             @ + . . ",
"        . = aXnXnXnXnXbXaXaXgXgXeX0XW.W.0XeXeXOX-.-.Y.I.T.R.T.E.R.R.E.E.R.T.#.O.+.$.T.E.T.K.@.+.+.K m f . . . . . . . & 9 6 . . ",
"        . = mXMXnXnXcXcXiXrXjXfX9X7X[.[.0X0XOX}.=.-.I.Q.E.E.E.E.R.E.E.E.E.T.b.$.+.b.E.E.W.T.b.b.$.@.G k % O . X ; ; ; 7 u 6 . . ",
"        . * cXMXnXnXcXeXZ.^.pXsXW.W.0X0X0X7XM.=.*.-.2X4XW.E.E.E.E.E.E.E.E.R.E.H.#.$.R.E.R.E.T.R.E.K.@.P m f . > N.#X#X} t 6 . . ",
"        1 0 mXMXnXvXpXiXZ.Z.<X>XR.[.0X8XOX X=.*.*.M.[.[.W.W.[.W.T.R.R.R.W.W.W.T.b.F.E.E.W.E.E.E.W.K.#.R G l * , :.>.>.[ 8 7 . . ",
"    . * aXNXnXnXzXgXpXrX-.=.-.-.-.-.8X<XM.=.*.*.*.*.*.J.1X5X5XXX-.-.~.(.0X8XW.E.R.E.E.E.E.E.E.E.W.K.@.O.O.O.O.c o o o X . .     ",
"    . = mXMXnXbXzXhXaXiX-.=.=.=.=.A.OX XM.=.=.,.=.=.,.M.XXoXoX{.=.,.(. X0X7XW.E.R.E.E.E.E.E.E.E.R.T.b.$.+.+.#.D * # . . . .     ",
"    . & mXMXnXnXnXbXhXyXZ.C.C.C.V.V.C.C.V.V.V.V.V.V.V.V.C.C.C.B.V.'.iXpXeX9XE.E.E.E.E.E.E.E.E.W.E.E.R.K.#.+.+.O.o.c . .         ",
"    1 B cXMXmXmXbXbXhXyXZ.C.C.C.C.C.C.Z.Z.Z.Z.Z.Z.Z.~.Z.Z.Z.Z.Z.C.'.pXpXeXwXXXW.W.E.E.E.E.W.W.W.E.E.E.H.#.+.+.#.#.C . .         ",
". * aXnXmXmXnXnXhXhXhXdXZ.C.C.C.^.^._._.].]._._._._._._._._.^.^.~.'.gXhXgXgXeX7XW.R.E.E.R.[.eX7XW.E.E.T.@.#.O.O.+.c . .         ",
". = cXMXnXmXnXnXzXhXgXpX'.Z.C.B.~.).)._.].]._._._._._._.,._._.`.(.|.gXgXgXfXeX8XXXW.E.W.W.2X9X8XW.[.E.T.G.#.+.#.#.c . .         ",
". * cXMXnXnXnXnXnXbXaXpXeX+X-.=.,.,.~.^._._._._._._._.)._._._.`.iXpXhXgXeXeXeXeXeX7XW.W.9XeXeXeXeX7XW.E.E.H.@.+.#.C . .         ",
". * cXMXnXnXnXnXmXcX<X<X{. X-.*.,.,.!.Z._._.).).`.).).`._._.`. XpXpXjXjXeXeXeXeXeX8XW.[.0XeXeX9X7X2XE.E.E.K.O.#.#.v . .         ",
". * cXMXnXnXnXnXaXrX$.$.#.+.*.*.*.*.*.=.V.C.C.V.~.~.~.^.^.(.xXeXaXaXaXpXeXeX0XeXeX7XE.[.0XeXeX7XW.W.E.E.W.K.#.O.#.v . .         ",
". * mXMXnXmXnXmXjXsXJ.;.+.+.&.&.&.*.*.*.B.V.V.V.!.!.!.,.!.~. X<X<X<X<X<XeXeXeXeXeX7X[.XX0XeXeX7XW.E.W.E.E.K.#.+.#.v X .         ",
". = nXMXnXmXzXzXhXgXeX|... . . .+.+.*.*.*.*.*.*.*.-.-.*.-.-.*.*.=.-.-.-.4X3XeXeXeXeX0X0XeXeX0X7XE.E.E.E.W.K.#.+.#.v . .         ",
". * lXkXmXbXhXhXhXgXyX7X;.;.;.;.G.G.&.&.&.&.&.&.&.&.&.&.&.&.&.&.&.&.-.J.3X3X0XeXeXeXeXeXeXeXeX7XW.E.E.E.W.H.#.R V h . .         ",
"    o = aXbXhXhXhXhXhXgXpXpXiXsX3X[... . . . .|  . . . . . .|  . .&.,X>XeXeXeXeXeXeX0XeXeXeXeX7XE.E.E.E.E.T.#.C X X             ",
"    . & sXmXhXgXhXhXhXhXaXaXaXsX[.Y.| | | | &.&.| | | | | o.&.&.&.<.>XqXeX0XeXeX0X9X7X7X7X7X7X2XW.E.E.R.H.J.$.C . .             ",
"    . & 5XhXhXhXhXhXhXhXgXhXhXwXA Z n b Z | }.J.A Z Z Z Z L ,X>X2X3XeXeXeXeXeXeXeX9XW.W.R.W.W.W.R.E.R.T.$.+.#.C X .             ",
"    . & W lXdXfXhXhXhXhXhXhXhXdX%.o...| Z A }./.A A o.o.o.%.>X>X3X3X7X7X7X3X7X7X7X2XE.E.E.E.E.E.E.R.K.H.+.K V h . .             ",
"        . = {.yXhXhXhXhXhXgXhXgXpXsX5X[.c Z }./.Z | .X}.2X6XeXeXeX9XW.W.E.W.W.W.W.E.E.E.E.R.E.E.E.T.#.#.$.C o .                 ",
"        . & E Y.yXgXhXjXgXhXjXdXpXpX5XU.n b /./.o.%.,X<X3XwXeX9X7X2XW.R.E.E.E.R.E.E.E.E.E.R.K.K.T.H.#.K C h . .                 ",
"            X * {.eXxXeXeXeXeXeXeXeX5X[.b b J.J.<.lXrXxXeXeX0X8XW.W.E.E.E.E.E.E.W.E.W.E.W.T.#.+.@.#.#.V o .                     ",
"            . # E <.<.F.6X7X7X7X7X3X4XW. .| ;.G.Y.U.7X7X2X7X8X2XE.E.E.E.E.R.T.K.K.H.T.H.H.J.#.Y C C C h X .                     ",
"                . X . & D.W.W.W.W.W.W.T.J.m. .o.Y.I.E.E.E.W.E.W.R.W.R.W.E.T.$.@.#.O.#.$.#.$.$.V X . . .                         ",
"                . . . % U I I I I E R.E.L.J.+.&.I.I.E.E.E.E.H.K.K.K.K.K.K.H.@.+.+.O.C c C C C h X . . .                         ",
"                        . X . X . * P.W.W.W.I.U.W.W.W.W.W.R.$.$.$.#.#.#.#.#.#.#.$.V X . . . . .                                 ",
"                        . . . . . % U I I I U U I I I I I I c v c v c c c v c c v h X . . . . .                                 ",
"                                    . . . . X . . . . X . . . . . . . . . . X . . .                                             ",
"                                    . . . . . . . . . . . . . . . . . . . . . . . .                                             ",
"                                                                                                                                "
};
