/* XPM */
static char *result[] = {
/* columns rows colors chars-per-pixel */
"64 64 4 1 ",
"  c #3E734E",
". c #7AB055",
"X c #4D9262",
"o c None",
/* pixels */
"ooooooooo XX ooooooo ooo ooooooo oooooooo XX ooooooo ooo ooooooo",
"oo  oo   XXXX  ooo  X o X  ooo   o  oo   XXXX  ooo  X o X  ooooo",
"o XX  XXXXXXXXX   XXXX XXXX   XXX XX  XXXXXXXXX   XXXX XXXX   oo",
"o XXXXXXXXXXXXXXXXXXXXXXX XXXXXXXXXXXXXXXXXXXXXXXXXXXXXXXXXXX oo",
"oo XXXXXXXXXXXXXXXXXXXXX X XXXXXXXXXXXXXXXXXXXXXXXXXXXXXXXXXX oo",
"oo XXXXXXXXXXXXXXXXXXXXXX XXXXXXXXXXXXXXXXXXXXXXXXXXXXXXXXXXXX o",
"o XXXXXXXXXXXXXXXXXXXXXXXXXXXXXXXXXXXXXXXXXXXXXXXXXXXXXXXXXXXX o",
"o XXXXXXXXXXXXXXXXXXXXXXXXXXXXXXXXXXXXXXXXXXXXXXXXXXXXXXXXXXXXX ",
"o XXXXXXXXXXXXXXXXXXXXXXXXXXXX.XXXXXXXXXXXXXXXXXXXXXXXXXXXXXXX o",
" XXXXXXXXXXXXXXXXXXXXXXXXXXXX..XXXXXXXXXXXXXXXXXXXXXXXXXXXXXX oo",
"XXXXXXXXXXXXXXXXXXXXXXXXXX.XX..XXXXXXXXXX.XXXXXXXXXXXXXXXXXXXX o",
"XXXXXXXXXXXXXXXXXXXXXXXXXX.. .XXXXXXXXXXX.XXXXXXXXXXXXXXXXXXXXX ",
" XXXXXXXXXXXXXXXXXXXXXXXXX .. XXXXXXXXX.X.XXXXXXXXXXXXXXXXXXXX o",
"o XXXXXXXXXXXXXXXXXXXXXXXXX  XXXXXXXXXX.X.XXXXXXXXXXXXXXXXXXXX o",
"o XXXXXXXXXXXXXXXXXXXXXXXXXXXXXXXXXXXXX.XXXXXXXXXXXXXXXXXXXXX oo",
"oo XXXXXXXXXXXXXXXXXXXXXXXXXXXXXXXXXXXXXXXXXXXXXXXXXXXXXXXXXX oo",
"oo XXXXXXXXXXXXXXXXXXXXXXXXXXXXXXXXXXXXXXXXXXXXXXXXXXXXXXXXXX oo",
"oo XXXXXXXXXXXXXXXXXXXXXXXXXXXXXXXXXXX XXXXXXXXXXXXXXXXXXXXXXX o",
"o XXXXXXXXXXXXXXXXXXXXXXXXXXXXXXXXXXX X XXXXXXXXXXXXXXXXXXXXXX o",
"o XXXXXXXXXXXXXXXXXXXXXXXXXXXXXXXXXXXX XXXXXXXXXXXXXXXXXXXXXXXX ",
" XXXXXXXXXXXXXXXXXXXXXXXXXXXXXXXXXXXXXXXXXXXXXXXXXXXXXXXXXXXXXXX",
"o XXXXXXXXXXXXXXXXXXXXXXXXXXXXXXXXXXXXXXXXXXXXXXXXXXXXXXXXXXXXXX",
"oo XXXXXXXXXXXXXXXXXXXXXXXXXXXXXX.XXXXXXXXXXXXXXXXXXXXXXXXXXXXX ",
"o XXXXXXXXXXXXXXXXXXXXXXXXXXXXXXX..XXXXXXXXXXXXXXXXXXXXXXXXXXX o",
" XXXXX.XXXXXXXXXXXXXXX.XXXXXXXXXX..XX.XXXXXXXXXXXXXXXXXXXXXX.X o",
"o XXXX.XXXXXXXXXXXXXXX.XXXXXXXXXXX. ..XXXXXXXXXXXXXXXXXXXX.X.X o",
"o XXXX.X.XXXXXXXXXXXXX.X.XXXXXXXXX .. XXXXXXXXXXXXXXXXXXXX.X. oo",
"oo XXX.X.XXXXXXXXXXXXX.X.XXXXXXXXXX  XXXXXXXXXXXXXXXXXXXXX.XX oo",
"oo XXXXX.XXXXXXXXXXXXXXX.XXXXXXXXXXXXXXXXXXXXXXXXXXXXXXXXXXXXX o",
"oo XXXXXXXXXXXXXXXXXXXXXXXXXXXXXXXXXXXXXXXXXXXXXXXXXXXXXXXXXXX o",
"o XXXXXXXXXXXXXXXXXXXXXXXXXXXXXXXXXXXXXXXXXXXXXXXXXXXXXXXXXXX oo",
"o XXXXXXXXXXXXXX.XXXXXXXXXXXXXXXXXXXXXXXXXXXXXXX.XXXXXXXXXXXXX  ",
"  XXXXXXXXXXXXX.X.XXXXXXXXXXXXXXXXXXXXXXXXXXXXX.X.XXXXXXXXXXXX o",
"oo XXXXXXXXXXXXX.XXXXXXXXXXXXXXXXXXXXXXXXXXXXXXX.XXXXXXXXXXXXX o",
"o XXXXXXXXXXXXXXXXXXXXXXXXXXXXXXXXXXXXXXXXXXXXXXXXXXXXXXXXXXX oo",
"o XXXXXXXXXXXXXXXXXXXXXXXXXXXXXXXXXXXXXXXXXXXXXXXXXXXXXXXXXXX oo",
"oo XXXXXXXXXXXXXXXXXXXXXXXXXXXXXXXXXXXXXXXXXXXXXXXXXXXXXXXXXX oo",
"oo XXXXXXXXXXXXXXXXXXXXXXX XXXXXXXXXXXXXXXXXXXXXXXXXXXXXXXXXXX o",
"o XXX..XXXXXXXXXXXXXXXXXX X XXXXXXXXXXXXXXXXXXXXXXXXXXXXXXXXXX o",
"o XXXX..X..XXXXXXXXXXXXXXX XXXXXXXXXXXXXXXXXXXXXXXXXXXXXXXXXXXX ",
"o XXXXX...XXXXXXXXXXXXXXXXXXXXXXXXXXXXXXX.XXXXXXXXXXX..XXXXXXX o",
" XXXXXX . XXXXXXXXXXXXXXXXXXXXXXXXXXXXX.X.XXXXXXXXXXXX..X..XX oo",
"XXXXXXX  XXXXXXXXXXXXXXXXXXXXXXXXXXXXXX.X.XXXXXXXXXXXXX...XXXX o",
"XXXXXXXXXXXXXXXXXXXXXXXXXXXXXXXXXXXXXXX.XXXXXXXXXXXXXXX . XXXXX ",
" XXXXXXXXXXXXXXXXXXXXXXXXXXXXXXXXXXXXXXXXXXXXXXXXXXXXXX  XXXXX o",
"o XXXXXXXXXXXXXXXXXXXXXXXXXXX.XXXXXXXXXXXXXXXXXXXXXXXXXXXXXXXX o",
"o XXXXXXXXXXXXXXXXXXXXXXXXXX.X.XXXXXXXXXXXXXXXXXXXXXXXXXXXXXX oo",
"oo XXXXXXXXXXXXXXXXXXXXXXXXXX.XXXXXXXXXXXXXXXXXXXXXXXXXXXXXXX oo",
"oo XXXXXXXXXXXXXXXXXXXXXXXXXXXXXXXXXXXXXXXXXXXXXXXXXXXXXXXXXX oo",
"oo XXXXXXXXXXXXXXXXXXXXXXXXXXXXXXXXXXX XXXXXXXXXXXXXXXXXXXXXXX o",
"o XXXXXXXXXXXXXXXXXXXXXXXXXXXXXXXXXXX X XXXXXXXXXXXXXXXXXXXXXX o",
"o XXXXXXXXXXXXXXXXXXXXXXXXXXXXXXXXXXXX XXXXXXXXXXXXXXXXXXXXXXXX ",
" XXXXXXXXXXXXXXXXXXXXXXXXXXXXXXXXXXXXXXXXXXXXXXXXXXXXXXXXXXXXXXX",
"o XXXXXXXXXXXXXXXXXXXXXXXXXXXXXXXXXXXXXXXXXXXXXXXXXXXXXXXXXXXXXX",
"oo XXXXXXXXXXXXXXXXXXXXXXXXXXXXXX.XXXXXXXXXXXXXXXXXXXXXXXXXXXXX ",
"o XXXXXXXXXXXXXXXXXXXXXXXXXXXXXXX..XXXXXXXXXXXXXXXXXXXXXXXXXXX o",
" XXXXXXXXXXXXXXXXXXXXX.XXXXXXXXXX..XX.XXXXXXXXXXXXXXXXXXXXXXXX o",
"o XXXXXXXXXXXXXXXXXXXX.XXXXXXXXXXX. ..XXXXXXXXXXXXXXXXXXXXXXXX o",
"o XXXXXXXXXXXXXXXXXXXX.X.XXXXXXXXX .. XXXXXXXXXXXXXXXXXXXXXXX oo",
"oo XXXXXXXXXXXXXXXXXXX.X.XXXXXXXXXX  XXXXXXXXXXXXXXXXXXXXXXXX oo",
"oo XXXXXXXXXXXXXXXXXXXXX.XXXXXXXXXXXXXXXXXXXXXXXXXXXXXXXXXXXXX o",
"oo   XXXX XXXX   XXXXXXXXX  XX XXX   XXXX XXXX   XXXXXXXXX  XX o",
"ooooo  X o X  ooo  XXXX   oo  o   ooo  X o X  ooo  XXXX   oo  oo",
"ooooooo ooo ooooooo XX oooooooo ooooooo ooo ooooooo XX ooooooooo"
};
