/* XPM */
static char *_22de4fdec53486fe45a523ec57d23deXMTbL7D5fFXDs0hp[] = {
/* columns rows colors chars-per-pixel */
"64 64 248 2 ",
"   c None",
".  c #020202",
"X  c #0A0A09",
"o  c #191815",
"O  c #16110D",
"+  c #26231B",
"@  c #141B27",
"#  c #2D2727",
"$  c #362A27",
"%  c #39332B",
"&  c #393635",
"*  c #352833",
"=  c #221D15",
"-  c #453C3C",
";  c #543B39",
":  c #6F3933",
">  c #3C423B",
",  c #48403D",
"<  c #544533",
"1  c #645739",
"2  c #35364D",
"3  c #081775",
"4  c #2D3C71",
"5  c #473C45",
"6  c #5B2B63",
"7  c #174A68",
"8  c #365764",
"9  c #225369",
"0  c #4D4848",
"q  c #54454A",
"w  c #56534B",
"e  c #5C5656",
"r  c #5B4F51",
"t  c #614B52",
"y  c #64585A",
"u  c #6A5751",
"i  c #67645B",
"p  c #646048",
"a  c #53566C",
"s  c #675B66",
"d  c #795B65",
"f  c #605E79",
"g  c #526D7B",
"h  c #686768",
"j  c #756669",
"k  c #7C6973",
"l  c #797679",
"z  c #707371",
"x  c #DF3619",
"c  c #E74A33",
"v  c #AA5F52",
"b  c #AA554C",
"n  c #8B675C",
"m  c #BB695C",
"M  c #B4725E",
"N  c #857A7A",
"B  c #897276",
"V  c #BA736F",
"C  c #88565B",
"Z  c #D67568",
"A  c #76817D",
"S  c #878278",
"D  c #988A7A",
"F  c #98947C",
"G  c #A6987C",
"H  c #BD9C7E",
"J  c #C28D7D",
"K  c #0D318A",
"L  c #7D318F",
"P  c #2D6C98",
"I  c #1952A7",
"U  c #3458A9",
"Y  c #2C5FAD",
"T  c #1C68AC",
"R  c #2165A9",
"E  c #2568AA",
"W  c #3467AB",
"Q  c #2B6CB2",
"!  c #266CB3",
"~  c #326FB5",
"^  c #4F558E",
"/  c #4F6D89",
"(  c #79758A",
")  c #6E6C90",
"_  c #4976BC",
"`  c #5E78B6",
"'  c #7476A4",
"]  c #677DBD",
"[  c #615E87",
"{  c #557CC1",
"}  c #977B86",
"|  c #857E93",
" . c #887886",
".. c #A67A81",
"X. c #8C599F",
"o. c #E27681",
"O. c #A67DE6",
"+. c #3B8CBF",
"@. c #4C8DBA",
"#. c #738BB9",
"$. c #7088B4",
"%. c #7E8083",
"&. c #3A88C3",
"*. c #568DCC",
"=. c #449ACD",
"-. c #4696CA",
";. c #5796CB",
":. c #499CD1",
">. c #5699D1",
",. c #4B8CC9",
"<. c #6696C9",
"1. c #6A98D0",
"2. c #56A2D2",
"3. c #53A3CE",
"4. c #78A2CA",
"5. c #63A6DB",
"6. c #67ABDC",
"7. c #6AACDC",
"8. c #6AAAD4",
"9. c #7AADD7",
"0. c #6DB4D7",
"q. c #71B3D7",
"w. c #78B6E3",
"e. c #6AADE1",
"r. c #79D1E1",
"t. c #898787",
"y. c #95878A",
"u. c #9B9485",
"i. c #9D9689",
"p. c #9D988A",
"a. c #969488",
"s. c #938B9A",
"d. c #999798",
"f. c #848498",
"g. c #A39A88",
"h. c #A68A96",
"j. c #A49C99",
"k. c #B79393",
"l. c #BAA688",
"z. c #A7A295",
"x. c #B6AA94",
"c. c #B6B19B",
"v. c #8784A4",
"b. c #9592A8",
"n. c #848ABB",
"m. c #8694BD",
"M. c #9899B8",
"N. c #928CB0",
"B. c #BC9CA6",
"V. c #AB98B0",
"C. c #98A9B8",
"Z. c #A2A2A2",
"A. c #ACA6A9",
"S. c #B4A8A6",
"D. c #A9A6BC",
"F. c #B4AAB8",
"G. c #BAB6BB",
"H. c #B6B4A3",
"J. c #9CA09B",
"K. c #C5B59A",
"L. c #D7AD97",
"P. c #C699B1",
"I. c #C7BBA4",
"U. c #CAA8B7",
"Y. c #D7ADB9",
"T. c #C5B2BA",
"R. c #CCB4B6",
"E. c #E09F92",
"W. c #CCC4AA",
"Q. c #CCC1A4",
"!. c #D2C8AE",
"~. c #D4CCB3",
"^. c #D4C8B2",
"/. c #8797C6",
"(. c #8E94C2",
"). c #97A5C8",
"_. c #87AAD2",
"`. c #A7ABC8",
"'. c #ADB4C9",
"]. c #B9B5C9",
"[. c #B7B6CD",
"{. c #A0ADEE",
"}. c #C4BDC7",
"|. c #D5B7C3",
" X c #C9AFC8",
".X c #FDBBDD",
"XX c #F7B6D8",
"oX c #F0B0CA",
"OX c #D6BEF4",
"+X c #FEBFEA",
"@X c #8BD0DC",
"#X c #BEC2C6",
"$X c #89C5EA",
"%X c #96CAEA",
"&X c #96D4E7",
"*X c #ACD9EE",
"=X c #98E2E8",
"-X c #ACE7F5",
";X c #BBEFFE",
":X c #BCF0FF",
">X c #B1E7EB",
",X c #C5C3CC",
"<X c #CBCACC",
"1X c #C8C5C8",
"2X c #D4C8CD",
"3X c #CDD1CD",
"4X c #DBD3CE",
"5X c #D5D7CD",
"6X c #C9C7D3",
"7X c #D6CAD5",
"8X c #D4D4D4",
"9X c #DCD4D4",
"0X c #DDDBD4",
"qX c #DDDCDB",
"wX c #D5D3DB",
"eX c #CCD4DE",
"rX c #E7CCCF",
"tX c #ECC9D7",
"yX c #F6C7DA",
"uX c #E5D6D7",
"iX c #F4D2D4",
"pX c #DFE0D6",
"aX c #E4E4D5",
"sX c #E4E4DC",
"dX c #ECEDDD",
"fX c #E9E6DA",
"gX c #EEF1DE",
"hX c #CBD2E8",
"jX c #FBC8E7",
"kX c #E8DBE4",
"lX c #FDDCEC",
"zX c #F8D5E6",
"xX c #FEDCF2",
"cX c #F6C5E9",
"vX c #C6F2FA",
"bX c #D7F8FB",
"nX c #C6E9EF",
"mX c #EAE7E6",
"MX c #F7E6EA",
"NX c #F1F4E3",
"BX c #F8F7EC",
"VX c #FBE8F3",
"CX c #E8FCFB",
"ZX c #FCF3F3",
"AX c #FDF4FA",
"SX c #FEFEFD",
"DX c #F9F7F3",
"FX c #EEECED",
/* pixels */
"                                                                                                                                ",
"                                                                                                                                ",
"                                                                                                                                ",
"                                                                      <.<.;.*._                                                 ",
"                                                                  4.%XnXnX*X*X$X>.W U                                           ",
"                                                      [ ) [ ^ _.%X-X%X%X%X%X$X1.~ Q ~ ~ W                                       ",
"                                                ) v.N.].[.).9.*X*X%X%Xw.w.6.q.*.R R R ! Q U                                     ",
"                                            ( G.,XeXwX9X[.9.*X$X$Xe.7.6.6.;.7.9.E E R R R Q W                                   ",
"                                          ].8XsXuXqXuX7X_.w.$Xe.e.e.6.6.6.5.:.,.&.&.~ ! R R Q U                                 ",
"                                      b.W.gXsXpX9XqXqX[.<.$Xe.6.5.5.6.6.6.e.5.:.:.-.&.&.! R ! U                                 ",
"                                    F.gXNXdXdXsXmXuXwX4.>.e.6.6.6.6.6.6.6.6.5.:.=.=.:.=.&.! R Q U                               ",
"                                  D.sXNXNXgXgXgXNXfX7X*.5.e.5.7.6.6.6.6.6.6.6.:.=.=.=.:.-.&.Q Q U                               ",
"                                M.fXgXNXNXNXNXgXdXaX3X*.5.e.7.5.6.6.6.6.6.6.5.:.=.=.-.-.=.;.@.~ W                               ",
"                              f.#XdXgXNXDXBXBXNXNXsX0X/.;.6.7.7.6.6.6.6.6.e.>.=.=.=.-._.9._._.&.7.#.                            ",
"                              b.mXpXNXBXDXBXgXgXdXdXNX6X{ 6.6.6.6.6.6.6.7.e.>.-.=.=.:.*XkXhX).,.@X&X<.                          ",
"                              M.pXqXNXNXNXgXgXdXdXNXNXsX).*.5.6.6.6.6.6.7.6.>.-.=.=.=.8.wXyX(.>.@X=X_.                          ",
"                            ' 8X7XaXgXgXgXdXfXsXmXsXgXsXmX).*.*.2.8.6.6.6.2.:.=.=.=.:.&.<.).@.%X-X=X=X#.                        ",
"                            ( <X<XaXgXgXdXdXuXwXqXpXmX0XdXsXC.$._ *.5.6.6.>.-.=.=.=.:.:.-.-.0.-X:X=X>X#.                        ",
"                            ( 1X1XfXgXgXgXdXpXwXpXpXaX<XdXaXgXpX).] _ ;.>.=.=.=.=.=.&.:.8.@X-X;XvX-X>X#.                        ",
"                            b.,X1XfXuXfXfXaX8X3X5X5X5X#XaX0XaXaX4X,X'.` _ :.3.3.3.3.8.%X-X:X;X;X:X>X>X#.                        ",
"                            M.}.,XuX4X9XuX0X<X,X3X5X<XD.5X4XuXpX3X3XuX6X).m.nXnX:X;XnXvX;X;X;X;X:XvX4.                          ",
"                            C.,X6X4X1X4X9X4X#X'.3X3X1XD.1X3X5X0X1X}.9X4X}.4.`.eXCXCXCXbXbXvXvXvXbXnX                            ",
"                            '.[.3X8X[.6X2X2X'.C.,X1X[.8XD.2X2XwX].`.2X2X6X`.(.(.`.`.eXCXCXCXCXCX'.                              ",
"                            `.D.6X8X'.D.}.,XC.' ].,X[.eXC.2X}.6X}.C.#X1X|.[.[.|.(.#.(.m.n.(.(.m.                                ",
"                            M.v.].6X].| F.V.D.[ D.,X}.[.#X].}.[.].| v.].V.D.(. X}.[.(.^ ^ ^ ^                                   ",
"                              ' b.].OXF.s.f.( 2 ( 2XmXwXVX6X].s.| f l F.t.].M.f V.`.D.' ' [                                     ",
"                              ) ( F.M.|.U.zX|.} q h.MXVXMXR.u ; u B.oXzXzXlX|. .) n.' v.kXDX                                    ",
"                                2 a N.zXMXzXtXoXk.S.zXZXzXY...k.Y.yXiXzXzXlXlXzX[.) a y } uX  .                                 ",
"                                  2 f.t.uXN e r B iXMXZXZXzXyXY.B y y t j P.yXxXOX^ f.0 d i.  .                                 ",
"                                   .h s B.} Y.R.y.S.ZXZXZXZXuXN S.|.|.|.P. .U.xX Xa s.j Y.mX8X                                  ",
"                                  & Z.f P.+XjXlXMXBXDXSXSXDXZXMXMXMXzX.X.XXXXXjX|.U.A.Z.DXSXl                                   ",
"                                    %.h  .+X+XxXAXSXSXSXSXSXSXDXZXxXjX.X.X.X.X.XyXzXmXM.7XU.                                    ",
"                                      2  .cX+XxXAXSXSXSXSXSXSXSXAXzXoXXXoXoXXX.XoXh.a ^ ^ 0                                     ",
"                                        k cXjXVXAXSXSXSXSXSXSXSXAXE.c Z c o.XXP.5     P                                         ",
"                                          } uXAXSXSX8XZ.b.z.sXSXAXL.c x x V } 5                                                 ",
"                                            j d.mXZX1Xy.t.y.uXBXMXiXE.Z : r                                                     ",
"                                    ~ Q R 3     r j.rXuXrXuXrXrXS.r 0 0             3 R K Q E                                   ",
"                                  @.&Xr.3.  T       & $ - 2 # & N z # #         K       +.8.T                                   ",
"                                    @.4.+.R K         o z l d.8XMXMXrXY.0 .       P W @.+.I                                     ",
"                                                    o b.d.t.SXSXDXDXmXd.( t.&         8.                                        ",
"                                                  X t.qXk t.SX8Xh e e J.#XDXh                                                   ",
"                                                  O A.U.B f.qXN A.G.G.CXtX|.U.r                                                 ",
"                                                  O h.U.A.l t.B.T.SXSXkXU.zXlXF.+                                               ",
"                                                  O F.zXVXy.G.FXT.kXMXtXzXxXxXtXs                                               ",
"                                                  z 9XSX1Xy h l y y i j h.zXAXxXh.O   O O O O                                   ",
"                                                  d.xX2Xi D u.g.n n u.D h.jXVXcXV.q B C B g.G G 1                               ",
"                                                t.FXtXT.; l.L.L.V m L.u.( OXhXOXO.6 k b J L.L.H 1                               ",
"                                              a.FXMXcXT.$ b m m m v v y &XvXbX*X%X' t b m m J m <                               ",
"                                            # qXSX|.kX1X$ D K.K.Q.I.I.k.DXSXSXDXVXlXB S Q.K.c.l.<                               ",
"                                              MXkXB.uX1X- D !.!.~.~.W...FXSXSXSXAXMXU.d I.~.K.H <                               ",
"                                          X   h.0 d.DXb.% D Q.!.~.~.W.B T.1X1XZXAXVXyXt z.~.Q.H %                               ",
"                                              t w d.uX% & G K.I.~.^.^.z.- h j h.T.lXyXe x.~.~.c.p                               ",
"                                              5 < n D = r g.G K.~.~.^.I.z z j 5 t k d 5 S a.a.K.D o                             ",
"                                                , $ $ = e k.G l.I.~.^.~.Q.0 - C d $ r j.z.z.A l.G o                             ",
"                                                      O i p.G K.K.^.^.~.~.D , , - i c.c.S x.p.z.G o                             ",
"                                                      . i H.G K.x.I.W.!.~.a.S a.p.p.z.z.p.z.S x.G =                             ",
"                                                      O i 9Xg.l.l.K.I.!.^.c.i.p.p.i.u.p.a.p.p.Q.G +                             ",
"                                                    > A i mXg.G l.k.l.x.K.W.W.W.W.W.W.W.W.W.W.K.G +                             ",
"                                                w w J.C.h 3XH.F F i.g.i.u.p.g.i.u.i.i.g.p.p.g.N p =                             ",
"                                              e pXdXCXbXC.A b.M.j.d.j.d.z.j.Z.Z.Z.Z.Z.Z.Z.z.Z.> X                               ",
"                                              q kXAXFXFXhXX.6 @ 8 8 a 9 7 7 @ . . . X . X . X X                                 ",
"                                                     XN.X.L 6 * g P A 8 7 7 @ . . . . . . . .                                   ",
"                                                                          . . . . .                                             ",
"                                                                                                                                "
};
