/* XPM */
static char *_32b8150f91a4650d675e120d61d5a9aKvDemdMO1cKJwQvY[] = {
/* columns rows colors chars-per-pixel */
"64 64 228 2 ",
"   c None",
".  c #000000",
"X  c #0A0600",
"o  c #081608",
"O  c #1A1700",
"+  c #231E01",
"@  c #002A02",
"#  c #003300",
"$  c #003B00",
"%  c #0B3D05",
"&  c #132700",
"*  c #32320B",
"=  c #004300",
"-  c #004A01",
";  c #044609",
":  c #154506",
">  c #005400",
",  c #005B00",
"<  c #00560A",
"1  c #185305",
"2  c #29570A",
"3  c #006300",
"4  c #006C00",
"5  c #056604",
"6  c #007201",
"7  c #007C03",
"8  c #0D7C00",
"9  c #007B0B",
"0  c #00730B",
"q  c #127C00",
"w  c #007810",
"e  c #317702",
"r  c #3E7720",
"t  c #4A4105",
"y  c #574704",
"u  c #585408",
"i  c #675708",
"p  c #6B6B0D",
"a  c #85740C",
"s  c #8D7B0E",
"d  c #018403",
"f  c #028B03",
"g  c #01830A",
"h  c #0D8C00",
"j  c #158C00",
"k  c #168700",
"l  c #019401",
"z  c #0C9401",
"x  c #019C01",
"c  c #0B9900",
"v  c #139B01",
"b  c #2B9305",
"n  c #01A401",
"m  c #03AA00",
"M  c #0AA801",
"N  c #13A200",
"B  c #13AB00",
"V  c #19AF00",
"C  c #19A601",
"Z  c #03B400",
"A  c #0DB600",
"S  c #05BA00",
"D  c #13B400",
"F  c #1BB400",
"G  c #12BE00",
"H  c #1BBD00",
"J  c #31B104",
"K  c #4C8A04",
"L  c #598E3A",
"P  c #409126",
"I  c #6F943C",
"U  c #56A32A",
"Y  c #55B027",
"T  c #69BE3A",
"R  c #05C300",
"E  c #0AC400",
"W  c #0CCD00",
"Q  c #12C300",
"!  c #1BC300",
"~  c #13CC00",
"^  c #1BCC00",
"/  c #0DD300",
"(  c #0FDA00",
")  c #13D300",
"_  c #1BD400",
"`  c #13DD00",
"'  c #1CDB01",
"]  c #22CA02",
"[  c #24D300",
"{  c #22DD00",
"}  c #28DF00",
"|  c #35DF04",
" . c #3BD71B",
".. c #14E500",
"X. c #1CE400",
"o. c #16EA00",
"O. c #1AEC00",
"+. c #1BF300",
"@. c #1EFA00",
"#. c #17F200",
"$. c #23E301",
"%. c #2AE400",
"&. c #2DEA00",
"*. c #28E906",
"=. c #33EE00",
"-. c #35EA08",
";. c #21F300",
":. c #23FC00",
">. c #2BFE00",
",. c #2AF503",
"<. c #35F200",
"1. c #32FF01",
"2. c #3BFE01",
"3. c #38F808",
"4. c #3DFC12",
"5. c #57DC1E",
"6. c #40D008",
"7. c #43FE01",
"8. c #4AFF05",
"9. c #43FF0C",
"0. c #47FA0B",
"q. c #53FF0C",
"w. c #4BE617",
"e. c #56E81A",
"r. c #47FC16",
"t. c #53FF14",
"y. c #5BFF13",
"u. c #56FE1A",
"i. c #5BFB1B",
"p. c #45E00D",
"a. c #65FF1D",
"s. c #52D52D",
"d. c #6BDB39",
"f. c #71DF3A",
"g. c #5CFE23",
"h. c #58F728",
"j. c #5FE23B",
"k. c #65E52A",
"l. c #69FE26",
"z. c #73FF2A",
"x. c #6FEC32",
"c. c #6BFF36",
"v. c #75FF34",
"b. c #7BFF3C",
"n. c #71FF3C",
"m. c #669848",
"M. c #6BA748",
"N. c #71AF50",
"B. c #738E67",
"V. c #7AD649",
"C. c #79CB50",
"Z. c #79FD48",
"A. c #78EB40",
"S. c #9D9017",
"D. c #A99A16",
"F. c #89A136",
"G. c #CDB91C",
"H. c #CBB61D",
"J. c #DDCD24",
"K. c #D0C434",
"L. c #E4D225",
"P. c #F3E837",
"I. c #94BC7C",
"U. c #87AE6F",
"Y. c #89CF5D",
"T. c #83FF47",
"R. c #84FE56",
"E. c #8EFF54",
"W. c #88F856",
"Q. c #93FF5D",
"!. c #90FF54",
"~. c #87E256",
"^. c #8DD563",
"/. c #92D26F",
"(. c #96FF63",
"). c #9AFE64",
"_. c #9CFF69",
"`. c #94EF6C",
"'. c #A3FF74",
"]. c #A8FF75",
"[. c #ABFF7B",
"{. c #A7FF7A",
"}. c #F8F04F",
"|. c #EEE650",
" X c #F7F264",
".X c #8C8C8B",
"XX c #9B9B9B",
"oX c #939393",
"OX c #9FBA8B",
"+X c #A4B498",
"@X c #A9ABA8",
"#X c #AEBCA4",
"$X c #B9B8B9",
"%X c #ACFF84",
"&X c #ADFF89",
"*X c #A6F287",
"=X c #B2FF8C",
"-X c #B9FF8F",
";X c #B2FF85",
":X c #BCFF93",
">X c #B8FC96",
",X c #ADEB91",
"<X c #C2FF9F",
"1X c #FEFC8A",
"2X c #CBFFAB",
"3X c #C6FFA5",
"4X c #CFFFB2",
"5X c #D1FFB3",
"6X c #D6FCBD",
"7X c #CEE6BD",
"8X c #FFFFA0",
"9X c #C8CAC6",
"0X c #CCD5C5",
"qX c gray87",
"wX c #DAFFC4",
"eX c #D6FCC3",
"rX c #DAE3D4",
"tX c #D4EEC3",
"yX c #E3FFD2",
"uX c #E9FDDA",
"iX c #E1F7D2",
"pX c #EDFFE3",
"aX c #F4FEED",
"sX c #F3FFE7",
"dX c #FAFFF4",
"fX c #FFFFFE",
"gX c #F6F9F3",
"hX c #E5E4E6",
/* pixels */
"                                                                                                                                ",
"                                                                                                                                ",
"                                                                                                                                ",
"                                                                                                                                ",
"                                                                                                                                ",
"                                                                                                                                ",
"                                                                                                                                ",
"                                                                                                                                ",
"                                                                                                                                ",
"                                                                                                                                ",
"                                                                                                                                ",
"                                                                                                                                ",
"                                                            . .       . .                                                       ",
"                                                          .               . .                                                   ",
"                                                        .                     .                                                 ",
"                                                      .                         .                                               ",
"                                                  k C P                         .                                               ",
"                                                B ....,.`.                        .                                             ",
"                                                ) S S / 4./.                                                                    ",
"                                              Q Z x Z / +.Z.+X                      .                                           ",
"                                            ^ R l x S ) #.9.>XXX                    .                                           ",
"                                          ^ W x l m R ) o.>.W.rX                      .                                         ",
"                                      H X.W l d m E W ~ ..@.r.4XhX                    .                                         ",
"                                  F ;.o.E f 7 f Z ~ ~ ~ ` +.>.R.aXhX.X                .                                         ",
"                              ! X.+.W n g 0 f M Q ~ ~ ~ ) ..@.r.-XdXgX@X                                                        ",
"                        N ^ +.O./ m f 9 g z N Q ~ ~ ~ ) ` o.>.7.v.3XdXgX9X                                                      ",
"                  k H $.+...E n f 7 d z N D Q ~ ~ ) ) X.,.2.y.v.Q.[.6XdXfXqXoX                                                  ",
"              C _ ;.+./ Z l g 9 d z C F ] ^ _ ^ _ ' 3.4.t.z.!.[.<XwXpXdXfXfXgX$X        .                                       ",
"            6.>.@./ m d 9 w 9 h v F ] [ { } } %.-.r.h.c.T._.;X4XpXfXfXfXfXfXdXaX@X      .                                       ",
"        U e.>.o.m d 6 0 w g z B H [ { &.=.=.=.0.h.Z.Z.R.'.%X2XpXfXfXfXfXfXfXaX4XtXXX    .                                       ",
"      U t.>.W f 3 , 3 6 g c D ! { %.=.=.<.2.0.i.c.Z.'.*X&X=XeXdXfXfXfXfXfXfXgX3X-X7X    .                                       ",
"    r e.>.~ 7 ; 2 : 3 d c D ^ { &.=.<.2.7.8.y.c.Z.`.'.&X&X=XwXdXfXfXfXfXfXfXdX3X'.:X#X  .                                       ",
"    5.>.` d # + G.t @ z A ^ { $.=.<.7.7.7.8.g.c.Z.(.%X&X%X;X6XdXfXfXfXfXfXfXuX;X_.(.,X  X                                       ",
"  Y 9.#.n - + y P.a O d ^ { { &.<.7.7.8.7.q.g.Z.Z.C.^.*X&X%X<XuXdXfXfXfXfXaX2X:X>XQ._.U.  .                                     ",
"  5.>./ 4 : D.P.8X}.G.K ' ' { &.<.7.7.7.8.q.l.s.2 p D.* N.&X;X3XyXsXaXaXuX3X4XaXfXwXb.Y.  .                                     ",
"L g.@.m > # * a }.D.t k X.{ { &.=.2.7.7.7.8.e.: . a G.X o /.[.&X2XuX6X4X:X:XyXfXfXaXZ.f.                                        ",
"U.g.o.l - # o + L.y @ G { [ ' $.=.<.7.7.7.7.J i p K. Xa i I [.:XuXfXwX[.[.[.5XsXdXeXu.k.    .                                   ",
"I.l...d - # # % p 1 z ~ C H ) [ %.=.<.<.=.=.J D.K. X1XL.G.F.[.-XyXdX5X]._.Q.!.(.Q.h.:.w.    .                         B.@XXX    ",
"OXZ.` 7 - # $ , 0 f D Q j B 8 v X.] F =.&.} C & O S.J.+ O I [.[.-X:X[.).E.v.y.7.>.X.:.y.L     .                     j *XfXfX0X  ",
"+XQ.' d - # $ - 0 f B Q D k q 8 B q C $.' _ ^ 5 X a H.X 1 x.!.(._.Q.!.b.l.q.2.:.X...:.h.        .                 ; m j.eXpX,Xb ",
"@X-X-.f > $ # $ 3 7 c D Q ^ ~ N h N ~ ~ ~ ~ ~ G h e K j &.9.y.l.z.z.a.q.7.1.:.~ M o.1.x.          . .             $ x ~  .s.[ d ",
".X6Xh.m 3 = # $ - 5 d c B G Q ~ ~ ~ ~ ~ ~ ~ ~ ~ ) ` X.:.:.>.1.2.7.7.2.1.>.+...x M +.4.V.                . .   . . # 7 x Z m x 3 ",
"  0X(._ 7 > $ # $ > 6 d x M A G ~ ~ ~ W ~ ^ ^ ) ' ' $.;.;.:.;.@.@.@.:.+.O.` ~ E ..:.u.C.                            < 0 g w 5   ",
"  @X5Xw.m 6 , = $ = , 4 7 f n D G ~ ~ ~ ^ ' ' { { { { $.$.X...` ` ..` ` / A S ..@.1.b.N.                              ; ; ;     ",
"    rX{.{ n 6 > - = - , 5 7 f c B D G ! ^ { { } } %.} { { _ E R R S S Z x x W o.:.t.~.                                          ",
"    XXpXR._ x 7 3 , - > , 3 6 7 f z N B F ! ] ] [ [ [ ] ! A m x l f d g M ~ o.:.9.T.N.                                          ",
"      $XyXZ._ n d 6 5 3 3 3 5 4 6 7 d z z v C B V V B c z f g 9 7 g x S ( O.:.4.T.^.                                            ",
"        9XiX(.*.S x f 7 7 6 6 4 6 6 9 w g g g g h d d d g 9 g l n S W ..+.>.u.E.`.                                              ",
"          @XhX>Xh.' S n l l l l l g g f d d g g g g d f x n Z R / ..#.:.0.n.).^.                                                ",
"              0XeX'.h.*.W R R R E S S S S S Z Z Z S S R W ( ..#.:.>.t.z.W.Y.m.                                                  ",
"                XX9X6X;XZ.r.,.;.#.#.O.o.........o.O.;.:.,.<.0.y.l.A.Y.M.                                                        ",
"                      @X#XOXC.d.p.} %.} %.} } } | p.5.e.d.d.d.N.L                                                               ",
"                                                                                                                                ",
"                                                                                                                                ",
"                                                                                                                                ",
"                                                                                                                                ",
"                                                                                                                                ",
"                                                                                                                                ",
"                                                                                                                                ",
"                                                                                                                                ",
"                                                                                                                                ",
"                                                                                                                                ",
"                                                                                                                                ",
"                                                                                                                                "
};
