/* XPM */
static char *_615eb6d48d44e0ae44fb41ae10ef3c89q1LuEt7ulaS6bHi[] = {
/* columns rows colors chars-per-pixel */
"64 64 199 2 ",
"   c None",
".  c #000000",
"X  c #060600",
"o  c #001D00",
"O  c #191D00",
"+  c #191717",
"@  c #271800",
"#  c #002501",
"$  c #013500",
"%  c #003B00",
"&  c #093605",
"*  c #382501",
"=  c #463000",
"-  c #004300",
";  c #004C00",
":  c #0F4500",
">  c #005100",
",  c #005A00",
"<  c #0B5004",
"1  c #13500A",
"2  c #2D4E01",
"3  c #244B1C",
"4  c #205113",
"5  c #006400",
"6  c #006B00",
"7  c #156600",
"8  c #007500",
"9  c #007B00",
"0  c #1F7C11",
"q  c #3D6302",
"w  c #297C16",
"e  c #284B24",
"r  c #3F7728",
"t  c #584202",
"y  c #674F07",
"u  c #6E580A",
"i  c #76670C",
"p  c #424F39",
"a  c #4A4F44",
"s  c #534E53",
"d  c #8C7508",
"f  c #96780F",
"g  c #008300",
"h  c #008B00",
"j  c #1D8A06",
"k  c #009400",
"l  c #009C00",
"z  c #1D9A00",
"x  c #32890B",
"c  c #00A300",
"v  c #00AC00",
"b  c #0BA300",
"n  c #00B400",
"m  c #00BB00",
"M  c #1BB90C",
"N  c #3AA724",
"B  c #55973C",
"V  c #4D8D36",
"C  c #59A33E",
"Z  c #46A72E",
"A  c #00C300",
"S  c #00CB00",
"D  c #00D200",
"F  c #00DB00",
"G  c #13D107",
"H  c #00E400",
"J  c #00EC00",
"K  c #00F400",
"L  c #00FE00",
"P  c #0AFE04",
"I  c #0DF909",
"U  c #13FF05",
"Y  c #11FF0A",
"T  c #1CFF0B",
"R  c #1BFA07",
"E  c #1BFB14",
"W  c #1FF511",
"Q  c #1CE506",
"!  c #24FF0A",
"~  c #2CFF1D",
"^  c #26FD17",
"/  c #30FF17",
"(  c #3BFF1D",
")  c #37EA1E",
"_  c #1AED24",
"`  c #2EE728",
"'  c #37EA25",
"]  c #27FF23",
"[  c #32FF29",
"{  c #38FF28",
"}  c #38FF32",
"|  c #41FF1D",
" . c #5BC53B",
".. c #50D832",
"X. c #4EFF2C",
"o. c #4AFF25",
"O. c #4FE534",
"+. c #46FF3A",
"@. c #54FF35",
"#. c #59FF34",
"$. c #63FF3C",
"%. c #4BDE46",
"&. c #6FCC4D",
"*. c #70CA4E",
"=. c #74DB4F",
"-. c #73D654",
";. c #5CFF4A",
":. c #59FF47",
">. c #60E540",
",. c #65FF4D",
"<. c #6DFF46",
"1. c #78FF4F",
"2. c #68FF5E",
"3. c #73FF51",
"4. c #7BFF55",
"5. c #6AEA5E",
"6. c #7BFF62",
"7. c #73EB67",
"8. c #9A8511",
"9. c #A28D0F",
"0. c #A28B12",
"q. c #AC9713",
"w. c #B39912",
"e. c #C7A617",
"r. c #CFB61B",
"t. c #D6C11A",
"y. c #E4C51B",
"u. c #E8D21B",
"i. c #F3D320",
"p. c #E1D53C",
"a. c #FFF329",
"s. c #F7EC35",
"d. c #84FF5C",
"f. c #8AC577",
"g. c #86FF65",
"h. c #8BFF66",
"j. c #8AFF6B",
"k. c #87FF6C",
"l. c #93FF6E",
"z. c #87FF75",
"x. c #8CFF78",
"c. c #88FF76",
"v. c #93FF74",
"b. c #99FF7B",
"n. c #96FD7A",
"m. c #F2EA4F",
"M. c #FFFF5C",
"N. c #FBF767",
"B. c #8E8E8E",
"V. c #888686",
"C. c #989897",
"Z. c #938B95",
"A. c #93B290",
"S. c #A29CA4",
"D. c #A8A6A7",
"F. c #B2ABAE",
"G. c #B8B7B8",
"H. c #8ED083",
"J. c #9CC594",
"K. c #94FF83",
"L. c #9EFF80",
"P. c #A3FF85",
"I. c #A9FF8B",
"U. c #ADFF93",
"Y. c #A7FF91",
"T. c #B6FF9D",
"R. c #B0FF97",
"E. c #B5CBAA",
"W. c #B3FDAB",
"Q. c #BFFFA6",
"!. c #BAFFB2",
"~. c #ABEBA3",
"^. c #FEFD80",
"/. c #C3FFAE",
"(. c #C6FFB2",
"). c #C9FEB9",
"_. c #D3FFBE",
"`. c #D0F5BE",
"'. c #FFFFA4",
"]. c #CCC8CC",
"[. c #C3C0C2",
"{. c #CDD6C5",
"}. c #D3D0D3",
"|. c #D2FEC4",
" X c #D7FFC9",
".X c #D9F9CC",
"XX c #DFE3D8",
"oX c #D6FFD1",
"OX c #CBF8C0",
"+X c #E1FFD2",
"@X c #E7FBDB",
"#X c #E8E6E8",
"$X c #ECFFE3",
"%X c #F3FFEC",
"&X c #F6FFEA",
"*X c #F9FFF4",
"=X c #FEF4FE",
"-X c #FEFEFE",
";X c #F7F2F5",
/* pixels */
"                                                                                                                                ",
"                                                                                                                                ",
"                                                                                                                                ",
"                                                                                                                                ",
"                                                                                                                                ",
"                                                                                                                                ",
"                                                                                                                                ",
"                                                                                                                                ",
"                                                                                                                                ",
"                                                                                                                                ",
"                                                                                                                                ",
"                                                                                                                                ",
"                                                                                                                                ",
"                                                                . . .                                                           ",
"                                                            X X         . .                                                     ",
"                                                          .                 . .                                                 ",
"                                                        .                     . .                                               ",
"                                                      & +                       .                                               ",
"                                                  k D I %.C.                      .                                             ",
"                                                  H D S K 7.                                                                    ",
"                                                A A c m H P H.                      .                                           ",
"                                              A S k c S J L ;.D.                    .                                           ",
"                                            S F l l n S H K Y `.Z.                    .                                         ",
"                                        c F F k g n S D F K L 2.;XB.                  .                                         ",
"                                    k H K D l 9 l A D D D J L Y |.;XB.                .                                         ",
"                                c D K H n g 9 h v S D S D F K L :.*X-XF.                                                        ",
"                          8 n H L J m k 9 g k v A D D D D H K L L 6.%X-X].                                                      ",
"                      l D L K F n k g g k c n S D D D F K K L L T #.I.$X-X#XB.          .                                       ",
"                  n J L J A l h 9 g k c m A D D D D H K L L T #.j.R._.%X-X-X-XG.        .                                       ",
"              n K L J m k 9 9 g h l n S F H J H H K L L P { 1.P.|.*X-X-X-X-X-X*XG.      .                                       ",
"            G L L A h 8 8 9 g k v A D H J K K K K L P ~ $.d.b._.*X-X-X-X-X-X-X(.|.D.    .                                       ",
"          Q L J c 6 , 5 8 g l n D H J K K K L L L P } 3.j.z.I.@X-X-X-X-X-X-X-X(.k.`.V.  .                                       ",
"        G L J h ; 2 : 5 g l m D H J K K L L L L L ] ,.k.x.c.I.$X-X-X-X-X-X-X-X).d.h.E.  .                                       ",
"      M L K k $ . y.y o l m D H J K L L L L L L L } 3.k.x.c.P.@X-X-X-X-X-X-X-XP.1.o.n.V.                                        ",
"    0 P L m , O = s.9.@ 8 F F H K K L L L L L L L _  .-.c.c.v.(.&X-X-X-X-X-X/.L.U.;.~ f.  .                                     ",
"    M L J g - 9.a.'.M.i.x H H H K K L L L L L L c # w.y e 7.g.b./.+X&X&X@X/.U.$X=X*X[ ..  .                                     ",
"    ' L S 5 $ O t s.q.* g J H H J K L L L L L D X . u.d . 3 d.g.P. X XT.I.l./.-X-X=X2.R                                         ",
"  p +.K v , $ # . y.y # A H F H H K K L L L L j f q.N.p.0.i -.j.(.=X-Xl.d.4.P.+X-XoX] P w   .                                   ",
"  a ,.K l ; $ % - q 7 c D k A D D J K K K K K j e.r.^.m.r.8.=.h.T.$X Xh.1.#./ ~ [ I L I j   .                         A.].D.    ",
"  a 6.K l , $ & , 9 k n D k k 5 c K m n K J J l . X u.d . & <.d.h.v.d.<.o.U L L L H L Y N     .                     n W.=X-XJ.  ",
"  s Y.K c > & $ - 6 h v A S c k 8 k 8 A H F D S 5 X r.u # S R | X.X.| ! L L L L J H L U x       . .               , A ` W.W.` % ",
"  s `.^ n 5 - $ $ , 9 l v A D F m c A D D S D D S v z b J L L L L L L L L L L F h F L ^ r           . .         . ; v S D D S $ ",
"    {.,.D 8 ; $ $ - 5 g k v m A D D D D D D D D D H J L L L L L L L L L L K J n c K L '                           % g l c l g   ",
"    C./.I c 6 ; $ $ ; 6 g k c n m S D D D D D F F H H J K K K K K K K K J H S D K L P ..                            ; 6 8 5 -   ",
"      XX,.D h 5 ; % - > 6 9 g l v m S D D D H H H H H H H H F F F F F F D v c H L L ] C                                         ",
"      S..X^ S h 6 , ; - > 5 9 g k c v m A S F H H J H H F F S m n n c l h c D K L P >.                                          ",
"        ].(.E A k 8 6 , , , 5 6 9 g h l c n m A A S S A m v l k g 9 9 k m F K L L @.C                                           ",
"          #XW.E D c g 9 8 6 6 6 6 6 9 9 h h k k l l l k h h 9 9 g l v S H K L P #.*.                                            ",
"            }.|.+.H A c h h h g g 9 9 9 9 9 9 9 g 9 9 g g h k v A S F K L L ^ <.*.                                              ",
"              F.#XK.~ J D n v n n n v c c c c l l c c c n A S F J K L L T @.=.C                                                 ",
"                  [..XK.} P J H J H H F F F F D F F H H J K L L L Y ~ O.&.V                                                     ",
"                      F.{.~.5.' E L L L L L L L L L L L P R ^ ) ..Z V                                                           ",
"                                e < > > > > ; > > > > < 1 4 3                                                                   ",
"                                                                                                                                ",
"                                                                                                                                ",
"                                                                                                                                ",
"                                                                                                                                ",
"                                                                                                                                ",
"                                                                                                                                ",
"                                                                                                                                ",
"                                                                                                                                ",
"                                                                                                                                ",
"                                                                                                                                ",
"                                                                                                                                "
};
