/* XPM */
static char *e123a0c0293c4f27d76b1d0402cdc28fhINmOmaRKqFSLz3i[] = {
/* columns rows colors chars-per-pixel */
"64 64 147 2 ",
"   c None",
".  c #00543D",
"X  c #00593D",
"o  c #00653D",
"O  c #006C3E",
"+  c #00703E",
"@  c #10783E",
"#  c #1E7C3E",
"$  c #277F3E",
"%  c #007442",
"&  c #00952A",
"*  c #019D2D",
"=  c #0C9F2E",
"-  c #119F2E",
";  c #2A803F",
":  c #33843F",
">  c #3D8A3E",
",  c #14A02E",
"<  c #1AA12E",
"1  c #23A32F",
"2  c #28A62F",
"3  c #2EA830",
"4  c #3AAB31",
"5  c #458E3F",
"6  c #4C943F",
"7  c #52973F",
"8  c #47AC32",
"9  c #49AD33",
"0  c #49B633",
"q  c #46BB32",
"w  c #4CBD33",
"e  c #51B133",
"r  c #5FB736",
"t  c #51BD34",
"y  c #62A43F",
"u  c #60B736",
"i  c #61B836",
"p  c #57C035",
"a  c #59C135",
"s  c #64C437",
"d  c #69C737",
"f  c #6AC738",
"g  c #6EC838",
"h  c #73C239",
"j  c #76CB3A",
"k  c #7ACC3B",
"l  c #328740",
"z  c #338D44",
"x  c #339045",
"c  c #449544",
"v  c #469C47",
"b  c #4B9B45",
"n  c #469E48",
"m  c #549E42",
"M  c #49A048",
"N  c #55A144",
"B  c #50A348",
"V  c #59AA48",
"C  c #62A540",
"Z  c #65AB42",
"A  c #68AA40",
"S  c #6AB144",
"D  c #6AB648",
"F  c #77BC44",
"G  c #7BBD45",
"H  c #7CC045",
"J  c #82CB3D",
"K  c #84D23D",
"L  c #8BD43F",
"P  c #91D53F",
"I  c #83C342",
"U  c #8DCC42",
"Y  c #80C748",
"T  c #8BCF48",
"R  c #93CF43",
"E  c #8FD340",
"W  c #8CD048",
"Q  c #91D640",
"!  c #93D741",
"~  c #90D540",
"^  c #94D741",
"/  c #92D044",
"(  c #93D044",
")  c #95D244",
"_  c #96D344",
"`  c #95D444",
"'  c #94D544",
"]  c #95D545",
"[  c #95D545",
"{  c #97D444",
"}  c #97D544",
"|  c #96D444",
" . c #92D541",
".. c #9AD744",
"X. c #9AD644",
"o. c #9AD744",
"O. c #95D841",
"+. c #96D841",
"@. c #97D941",
"#. c #96DB40",
"$. c #96DA41",
"%. c #96DB41",
"&. c #97DA41",
"*. c #96D842",
"=. c #96DC41",
"-. c #97DC41",
";. c #95D840",
":. c #99D942",
">. c #9BDB43",
",. c #9ADA43",
"<. c #9CDB43",
"1. c #99DD41",
"2. c #9ADC42",
"3. c #9ADD42",
"4. c #9CDD42",
"5. c #9DDC43",
"6. c #9DDE42",
"7. c #9ADA44",
"8. c #9DD945",
"9. c #9DD845",
"0. c #9CDB44",
"q. c #9FDC44",
"w. c #9FDD45",
"e. c #9CDC44",
"r. c #A0DF43",
"t. c #A1DD44",
"y. c #A2DD45",
"u. c #A2DE44",
"i. c #A2DE45",
"p. c #A3DE45",
"a. c #A3DF45",
"s. c #A4DF45",
"d. c #A1DF44",
"f. c #A1E143",
"g. c #A1E242",
"h. c #A1E342",
"j. c #A1E243",
"k. c #A5E443",
"l. c #A5E543",
"z. c #A2E044",
"x. c #A3E144",
"c. c #A4E045",
"v. c #A5E544",
"b. c #A6E544",
"n. c #A5E644",
"m. c #A3E244",
"M. c #A8E644",
/* pixels */
"                                                                                                                                ",
"                                                                                                                                ",
"                                                                                                                                ",
"                                                                                                                                ",
"                                                                                                                                ",
"                                                                                                                                ",
"                                                                                                                                ",
"                                                                                                                                ",
"                                                                                                                                ",
"                                                                                                                                ",
"                                                                                                                                ",
"                                              O O O O o O O O O O o O O O O O                                                   ",
"                                              6 V N N N N N N N m N N N N N V 5                                                 ",
"                                        O X $ I ) R R R / / / / ( ( ( ( ( ( } Z X o O o                                         ",
"                                        6 B Z w.f.@.=.=.=.=.=.=.=.=.1.@.=.=.n.I b N V c                                         ",
"                                O O X $ I ) ) m.L f g g g g d d g g g g d j 5.9.R R [ I ; X O o                                 ",
"                              5 V N b Z w.h.=.! j q t t p w p p p q p p q a E @.=.=.m.3.Z b N V 5                               ",
"                          o X Z [ ) R ) y.E d f s a p p p p p p p p p p a a s g g d E y.[ ( ( @.A X o                           ",
"                        5 V b I v.1.=.=.! j q p t a a a a a a p p p a a a a t t w q j ! =.=.P M.I b V 5                         ",
"                      . A [ R 9.5.j f g f p p q t a a a p a a a p p a a a a p p a p s g g f j 5.9.R ) A .                       ",
"                      5 W n.1.=.E a q w p a g g s a a a a a a a a p a a a a a p a a p w p q a L =.1.n.W >                       ",
"                    z I w.5.j g s p w w 4 j =.1.k p a a a t a a a a a a p a a a a a a p a t a d f j 5.w.I >                     ",
"                  o n 1.f.L a q p s g f s E m.3.k t a a a a a a a a a p a a p a a a a a a a a t q a E n.2.n o                   ",
"                    z } L s a w p E ! Q E 3.w.j a a a a a a a a a a a a a a a a a p a a a a a a p a s L ) z                     ",
"                  : Z 7.K q p a j 3.y.y.y.1.L a t a a a a a a a p a a a a p a a a a a a a a a a a p q K 9.Z :                   ",
"                . y [ y.K w q j @.w.y.y.y.E s a p a a a a a a a a a a p a a a a a a a a a a a a a a t K y.[ y .                 ",
"                > T v.@.j p s L m.! E ! Q j q p a a a a a t a a a a a a a a a p a a a a a a a a a p t k 2.m.W >                 ",
"              5 I w.5.j a s L y.<.j s d g s p a a a a p a a a a a p a a p a a a t a a a a t a a a a a a j <.w.I >               ",
"            o n 7.f.L a q s E 2.L a q p w p a a a p a a a a a a a a a a a a a a a a a a a a a a a p a w a E f.3.M o             ",
"            o c X.L s a p a d g f a p p p p a a a a a a a a a a a a a a a a a p a a a a a a a t a a a a a s L [ c o             ",
"              c } K q p a a p w t a a a a a a p a a a a a t a a a a t a a a a a a a a a a a a a p a a a a q K X.c               ",
"              z _ K p p a a p p p a a a p a a a a t a a a a a a a a a a a p a a t a a a a a a a a a a a a w K ) z               ",
"            l Z 2.K p p p a a a a a a a a a a a a a a a a a a a a a a a a a a a a a a a a a a a a a a a p p k ] Z z             ",
"          O A [ y.K w p a a a a a a a a a a a a a a a a r a a a t a a a a a a a a a a a a a a a a p t a p p E w.X.y O           ",
"          O Y v.@.j p p a a a a a a a a a a a a a a a a a a t a a a a a a a a a a a a a a a a a a a a a a p j 3.n.Y O           ",
"          + H 5.j a p p a a a a t a a a a a a a a a s a a a s a a s a a a s a a s a a t a a a a a a a a a a a j 5.H +           ",
"          O H 1.s w a a a a a a a a a a a a t t p w t t t w t t t t t w t t t t t w t a a a a r a a a a p a q a 5.G O           ",
"          + G 1.s t a a a a a a s a a a a 0 2 2 3 3 3 3 3 3 2 3 3 3 3 3 3 3 3 3 3 2 0 s s a a a a a a a a a p d 1.H O           ",
"          O G 1.s t a a a a a t t t t t t 4 * * * * * * * * * * * * * * * * * * * * 4 t p w w w t a a a a a p f 1.G O           ",
"          O G 1.s w a a a a s 0 2 3 3 3 3 1 = = , , = , - - - - - - - - - - - - - = 1 3 3 3 3 2 0 a s a a a q a 5.H O           ",
"          O G u.k s p a p t t 4 * * * * * = , , , , , , , , , , - , , , , , , , , , = * * * * & 4 t t t a p s j 5.G O           ",
"          + F f.P k p a q 2 3 1 = - - - - , , , , , , , , , , , , , , , , , , , , , - - - - - - 1 3 2 q a a j 2.f.F O           ",
"          O F m.c.J q t 4 * * = - - < , , , , , , , , , , , , , , , , , , , , , , , , , , , , , = * * 4 t q J c.f.G O           ",
"          O G M.m.h = 3 1 = - - - - < - , , , , , , , , , , , , , , , , , , , , , , , , , , , , - - = 1 3 , h y.v.H O           ",
"          + S _ 5.h & * = , , , , , , , , , , , - , , , , , , , , , , , , , , , , , , , , , , , - - < = * & i y./ S +           ",
"          @ x y 9.h & * - , , , , , , , , , , , , , , , , , , , , , , , , , , , , , , , , , , , - < , - * & h y.y x @           ",
"          # o : _ J 8 - * = , , , , , , , , , , , , , , , , , , , , , , , , , , , , , , , , , , , - = * < 4 J ) : O #           ",
"            o n 9.u.k 1 & * = , , , , , , , , , , , , , , , , , , , , , , , , , , , , , , , , , , = * & 1 J u.2.v O             ",
"              > I m.1.r 8 9 < * * = * * = * * = * * = * * = * * = * * = * * = * = * * = * * = * * < 9 9 r 5.m.I z               ",
"                > W l./ E J 1 & * * * * * * * * * * * * * * * * * * * * * * * * * * * * * * * * & 1 J P Q v.T >                 ",
"                . C [ m.v.2.i 9 e e e e e e e e e e 0 e e e e e 9 e e e e e e e 0 e e e e e e e 9 i <.c.y.] C .                 ",
"                  l D 9.M.u.@.P P P } P P P P P P _ P P P } P P P P P P P P P } P P P P P P } P P } f.M.3.D :                   ",
"                    ; I / U R R R R R R R R R R R R _ R R R R R R R R R R R R R R R R R R R R R _ R U / I $                     ",
"                      7 m 7 7 7 7 m 7 7 7 7 7 m 7 7 7 7 7 7 7 m 7 7 7 7 7 m 7 7 7 7 7 7 7 m 7 7 7 7 7 m 6                       ",
"                      O % O O O O O O O O O + O O O O O O O O O O O O O O + O O O O O O O O O O O O O % O                       ",
"                                                                                                                                ",
"                                                                                                                                ",
"                                                                                                                                ",
"                                                                                                                                ",
"                                                                                                                                ",
"                                                                                                                                ",
"                                                                                                                                ",
"                                                                                                                                ",
"                                                                                                                                "
};
