/* XPM */
static char *_185847f06a840c1d8ca281c1729ad32AzgVxB2niTY7FVx2[] = {
/* columns rows colors chars-per-pixel */
"64 64 8 1 ",
"  c None",
". c #45283C",
"X c #663931",
"o c #3E734E",
"O c #7AB055",
"+ c #4D9262",
"@ c #CBDBFC",
"# c white",
/* pixels */
"                                                                ",
"                                                                ",
"                                                                ",
"               ###                             ###              ",
"             #####@                          #####@             ",
"            #####@@#                        #####@@#            ",
"           ####@@@###                      ####@@@###           ",
"          o+@#########                    o+@#########          ",
"         o+O@##########                  o+O@##########         ",
"         o###@O+#######                  o###@O+#######         ",
"        o##@@O+O#@#####@                o##@@O+O#@#####@        ",
"       o++@+OO#@@+@####@o              o++@+OO#@@+@####@o       ",
"       #+++O+O+O+++##@@oo              #+++O+O+O+++##@@oo       ",
"       ##O+####++###@oooo              ##O+####++###@oooo       ",
"      o#@@Oo@@@##@@@oooooo            o#@@Oo@@@##@@@oooooo      ",
"      @@@OOOooooooo+++oooo            @@@OOOooooooo+++oooo      ",
"      o+OOO++++++++++++o#o            o+OOO++++++++++++o#o      ",
"     o+##+O+O++#########@oo          o+##+O+O++#########@oo     ",
"    o+#####++#######@o@@+ooo        o+#####++#######@o@@+ooo    ",
"    o+@@@##@#+++@##@o+o+ooo         o+@@@##@#+++@##@o+o+ooo     ",
"    o++++@@++++++@@o+o+o+oo         o++++@@++++++@@o+o+o+oo     ",
"   ###++o+o+++++++++++++ooo        ###++o+o+++++++++++++ooo     ",
"   ###+++o+o+o+++++++++o+ooo       ###+++o+o+o+++++++++o+ooo    ",
"   ###O+++o+o+o+o+++++++oo#oo      ###O+++o+o+o+o+++++++oo#oo   ",
"   @##+O+++ooooo+o+++##+####o      @##+O+++ooooo+o+++##+####o   ",
"   @###+O+++ooooo+++#####@@@o      @###+O+++ooooo+++#####@@@o   ",
"   o@###+O+++#####++####@++ooo     o@###+O+++#####++####@++ooo  ",
"   oo####+O##@@@@#####@@o+oooo     oo####+O##@@@@#####@@o+oooo  ",
"  oo@@@#####++ooo@@@@@oo+o+oooo   oo@@@#####++ooo@@@@@oo+o+oooo ",
" o##@oo@@@@@++++ooooooo+o+o+ooo  o##@oo@@@@@++++ooooooo+o+o+ooo ",
" o###oooooo+++++++ooo++o+o#oooo  o###oooooo+++++++ooo++o+o#oooo ",
" o@###O+++++++++++++++++###@ooo  o@###O+++++++++++++++++###@ooo ",
" oo@###O++++++++++++++####@oooo  oo@###O++++++++++++++####@oooo ",
" oo+@@###++#####@++++@@@@@oo+o#  oo+@@###++#####@++++@@@@@oo+o# ",
" ooo++@@++@####@+++++++o+oooo#@  ooo++@@++@####@+++++++o+oooo#@ ",
"ooooo++++++@@@@++++++ooooooo#@o ooooo++++++@@@@++++++ooooooo#@o ",
"ooooooooo++++++++++++++++###@oooooooooooo++++++++++++++++###@ooo",
"o#o++++++##+++++++++++++##+++oooo#o++++++##+++++++++++++##+++ooo",
"o###+o#@@######oooo+OO###@+oooooo###+o#@@######oooo+OO###@+ooooo",
"o####+ooo@@@#ooooo+###@@+oooooooo####+ooo@@@#ooooo+###@@+ooooooo",
"o@###+oooooooo+@@@@@@@@@@oo++oooo@###+oooooooo+@@@@@@@@@@oo++ooo",
"o@##@@+oooooooooooooooooo+++++ooo@##@@+oooooooooooooooooo+++++oo",
"o+@####+oooooooooo++++#####@++ooo+@####+oooooooooo++++#####@++oo",
"o++@@####++++##+++++####@@O+++ooo++@@####++++##+++++####@@O+++oo",
" o++O@@++++#@@@##+#@@@@@++++oooo o++O@@++++#@@@##+#@@@@@++++oooo",
"  ooo++@@+++++++++++++++++ooooo   ooo++@@+++++++++++++++++ooooo ",
"   oooo+++++++oo++++++++oooooo     oooo+++++++oo++++++++oooooo  ",
"    ooooo++++oooooooooooooooo       ooooo++++oooooooooooooooo   ",
"      oooooooooooooooooooooo          oooooooooooooooooooooo    ",
"        oooooo......oo                  oooooo......oo          ",
"         ooo........                     ooo........            ",
"           XXXX.X.X.                       XXXX.X.X.            ",
"           XXXX.X.X.                       XXXX.X.X.            ",
"           XXXXXX.X..                      XXXXXX.X..           ",
"          X.XXXXX.X..                     X.XXXXX.X..           ",
"         X..XXXXX.X..X                   X..XXXXX.X..X          ",
"            XX.XX.....X                     XX.XX.....X         ",
"           XXX.X....X                      XXX.X....X           ",
"           X.........X                     X.........X          ",
"           X        ..                     X        ..          ",
"                                                                ",
"                                                                ",
"                                                                ",
"                                                                "
};
